<mxfile host="app.diagrams.net" agent="Mozilla/5.0 (Windows NT 10.0; Win64; x64) AppleWebKit/537.36 (KHTML, like Gecko) Chrome/131.0.0.0 Safari/537.36" version="25.0.3">
  <diagram name="Page-1" id="W7a5r7-SPEdHKC77line">
    <mxGraphModel dx="1195" dy="622" grid="1" gridSize="10" guides="1" tooltips="1" connect="1" arrows="1" fold="1" page="1" pageScale="1" pageWidth="850" pageHeight="1100" math="0" shadow="0">
      <root>
        <mxCell id="0" />
        <mxCell id="1" parent="0" />
        <mxCell id="W5Y6wOmE9g8T70VVtJR0-6" style="edgeStyle=orthogonalEdgeStyle;rounded=0;orthogonalLoop=1;jettySize=auto;html=1;entryX=0.5;entryY=0;entryDx=0;entryDy=0;" edge="1" parent="1" source="W5Y6wOmE9g8T70VVtJR0-1" target="W5Y6wOmE9g8T70VVtJR0-3">
          <mxGeometry relative="1" as="geometry" />
        </mxCell>
        <mxCell id="W5Y6wOmE9g8T70VVtJR0-1" value="&lt;font style=&quot;font-size: 24px;&quot;&gt;start&lt;/font&gt;" style="strokeWidth=2;html=1;shape=mxgraph.flowchart.start_1;whiteSpace=wrap;" vertex="1" parent="1">
          <mxGeometry x="375" y="40" width="100" height="60" as="geometry" />
        </mxCell>
        <mxCell id="W5Y6wOmE9g8T70VVtJR0-2" value="&lt;font style=&quot;font-size: 24px;&quot;&gt;end&lt;/font&gt;" style="strokeWidth=2;html=1;shape=mxgraph.flowchart.start_1;whiteSpace=wrap;" vertex="1" parent="1">
          <mxGeometry x="375" y="530" width="100" height="60" as="geometry" />
        </mxCell>
        <mxCell id="W5Y6wOmE9g8T70VVtJR0-7" style="edgeStyle=orthogonalEdgeStyle;rounded=0;orthogonalLoop=1;jettySize=auto;html=1;entryX=0.5;entryY=0;entryDx=0;entryDy=0;" edge="1" parent="1" source="W5Y6wOmE9g8T70VVtJR0-3" target="W5Y6wOmE9g8T70VVtJR0-5">
          <mxGeometry relative="1" as="geometry" />
        </mxCell>
        <mxCell id="W5Y6wOmE9g8T70VVtJR0-10" style="edgeStyle=orthogonalEdgeStyle;rounded=0;orthogonalLoop=1;jettySize=auto;html=1;entryX=0.5;entryY=0;entryDx=0;entryDy=0;" edge="1" parent="1" source="W5Y6wOmE9g8T70VVtJR0-3" target="W5Y6wOmE9g8T70VVtJR0-8">
          <mxGeometry relative="1" as="geometry">
            <mxPoint x="424.9999999999998" y="240" as="targetPoint" />
          </mxGeometry>
        </mxCell>
        <mxCell id="W5Y6wOmE9g8T70VVtJR0-3" value="for i &amp;lt; 4, i++" style="rhombus;whiteSpace=wrap;html=1;" vertex="1" parent="1">
          <mxGeometry x="354" y="150" width="142" height="70" as="geometry" />
        </mxCell>
        <mxCell id="W5Y6wOmE9g8T70VVtJR0-13" style="edgeStyle=orthogonalEdgeStyle;rounded=0;orthogonalLoop=1;jettySize=auto;html=1;entryX=0.5;entryY=0;entryDx=0;entryDy=0;" edge="1" parent="1" source="W5Y6wOmE9g8T70VVtJR0-4" target="W5Y6wOmE9g8T70VVtJR0-12">
          <mxGeometry relative="1" as="geometry" />
        </mxCell>
        <mxCell id="W5Y6wOmE9g8T70VVtJR0-4" value="for i = 3, i &amp;gt;= 0, i--" style="rhombus;whiteSpace=wrap;html=1;" vertex="1" parent="1">
          <mxGeometry x="354" y="380" width="142" height="70" as="geometry" />
        </mxCell>
        <mxCell id="W5Y6wOmE9g8T70VVtJR0-9" style="edgeStyle=orthogonalEdgeStyle;rounded=0;orthogonalLoop=1;jettySize=auto;html=1;entryX=1;entryY=1;entryDx=0;entryDy=0;" edge="1" parent="1" source="W5Y6wOmE9g8T70VVtJR0-5" target="W5Y6wOmE9g8T70VVtJR0-3">
          <mxGeometry relative="1" as="geometry" />
        </mxCell>
        <mxCell id="W5Y6wOmE9g8T70VVtJR0-5" value="input ch[i]" style="shape=parallelogram;perimeter=parallelogramPerimeter;whiteSpace=wrap;html=1;fixedSize=1;" vertex="1" parent="1">
          <mxGeometry x="510" y="230" width="212.5" height="40" as="geometry" />
        </mxCell>
        <mxCell id="W5Y6wOmE9g8T70VVtJR0-11" style="edgeStyle=orthogonalEdgeStyle;rounded=0;orthogonalLoop=1;jettySize=auto;html=1;entryX=0.5;entryY=0;entryDx=0;entryDy=0;" edge="1" parent="1" source="W5Y6wOmE9g8T70VVtJR0-8" target="W5Y6wOmE9g8T70VVtJR0-4">
          <mxGeometry relative="1" as="geometry" />
        </mxCell>
        <mxCell id="W5Y6wOmE9g8T70VVtJR0-8" value="output&lt;br&gt;&quot;Result: &quot;" style="shape=parallelogram;perimeter=parallelogramPerimeter;whiteSpace=wrap;html=1;fixedSize=1;" vertex="1" parent="1">
          <mxGeometry x="319" y="300" width="212.5" height="40" as="geometry" />
        </mxCell>
        <mxCell id="W5Y6wOmE9g8T70VVtJR0-14" style="edgeStyle=orthogonalEdgeStyle;rounded=0;orthogonalLoop=1;jettySize=auto;html=1;entryX=1;entryY=1;entryDx=0;entryDy=0;" edge="1" parent="1" source="W5Y6wOmE9g8T70VVtJR0-12" target="W5Y6wOmE9g8T70VVtJR0-4">
          <mxGeometry relative="1" as="geometry" />
        </mxCell>
        <mxCell id="W5Y6wOmE9g8T70VVtJR0-12" value="output ch[i]" style="shape=parallelogram;perimeter=parallelogramPerimeter;whiteSpace=wrap;html=1;fixedSize=1;" vertex="1" parent="1">
          <mxGeometry x="510" y="470" width="212.5" height="40" as="geometry" />
        </mxCell>
        <mxCell id="W5Y6wOmE9g8T70VVtJR0-15" style="edgeStyle=orthogonalEdgeStyle;rounded=0;orthogonalLoop=1;jettySize=auto;html=1;entryX=0.5;entryY=0;entryDx=0;entryDy=0;entryPerimeter=0;" edge="1" parent="1" source="W5Y6wOmE9g8T70VVtJR0-4" target="W5Y6wOmE9g8T70VVtJR0-2">
          <mxGeometry relative="1" as="geometry" />
        </mxCell>
      </root>
    </mxGraphModel>
  </diagram>
</mxfile>
